<?xml version="1.0" encoding="utf-8"?>
<!-- Generator: Adobe Illustrator 19.1.0, SVG Export Plug-In . SVG Version: 6.00 Build 0)  -->
<svg version="1.1" id="1" xmlns="http://www.w3.org/2000/svg" xmlns:xlink="http://www.w3.org/1999/xlink" x="0px" y="0px"
	 viewBox="0 0 595.3 841.9" style="enable-background:new 0 0 595.3 841.9;" xml:space="preserve">
<style type="text/css">
	.st0{fill:#63C2EF;}
	.st1{fill:#FFFFFF;}
	.st2{font-family:'Desyrel';}
	.st3{font-size:82.165px;}
	.st4{font-family:'Courier';}
	.st5{font-size:71.8944px;}
	.st6{font-family:'PTSans-Narrow';}
	.st7{font-size:15.3245px;}
	.st8{letter-spacing:7;}
	.st9{fill:none;}
</style>
<g>
	<path class="st0" d="M405,391.4c13.2,5,24.4,11.7,34.2,19.1c0,0-1-16.4,0.8-29.1C440,381.5,423.9,384.9,405,391.4z"/>
	<path class="st1" d="M450.4,358.6c-4.5,15.9-5.5,38.8-3.8,58.6c0,0,46-37.3,96.1-63.7C542.8,353.5,480.1,354.8,450.4,358.6z"/>
</g>
<text transform="matrix(1 0 0 1 -7.636 441.1418)"><tspan x="0" y="0" class="st0 st2 st3">teach</tspan><tspan x="217.2" y="0" class="st0 st4 st3"> </tspan><tspan x="265.7" y="0" class="st1 st2 st3">tour</tspan><tspan x="435.6" y="13.8" class="st0 st2 st5"> </tspan></text>
<g>
	<text transform="matrix(1 0 0 1 99.5903 471.7698)" class="st1 st6 st7 st8">TEACH AND TOUR IN CHINA</text>
</g>
<rect x="235.3" y="385.3" class="st9" width="54.6" height="72.1"/>
<text transform="matrix(1 0 0 1 240.547 442.8528)" class="st0 st4 st3">&amp;</text>
</svg>
